  0
SECTION
  2
HEADER
  9
$ANGBASE
  50
0.0
  9
$ANGDIR
  70
  1
  9
$MEASUREMENT
  70
0
  0
ENDSEC
  0
SECTION
  2
TABLES
  0
TABLE
  2
LTYPE
  70
1
  0
LTYPE
  2
CONTINUOUS
  70
0
  3
Solid line
  72
65
  73
0
  40
0.0
  0
ENDTAB
  0
TABLE
  2
STYLE
  70
4
  0
STYLE
  2
KICAD
  70
0
  40
0
  41
1
  42
1
  50
0
  71
0
  3
isocp.shx
  0
STYLE
  2
KICADB
  70
0
  40
0
  41
1
  42
1
  50
0
  71
0
  3
isocp.shx
  0
STYLE
  2
KICADI
  70
0
  40
0
  41
1
  42
1
  50
15
  71
0
  3
isocp.shx
  0
STYLE
  2
KICADBI
  70
0
  40
0
  41
1
  42
1
  50
15
  71
0
  3
isocp.shx
  0
ENDTAB
  0
TABLE
  2
LAYER
  70
30
  0
LAYER
  2
BLACK
  70
0
  62
7
  6
CONTINUOUS
  0
LAYER
  2
GRAY1
  70
0
  62
251
  6
CONTINUOUS
  0
LAYER
  2
GRAY2
  70
0
  62
8
  6
CONTINUOUS
  0
LAYER
  2
GRAY3
  70
0
  62
9
  6
CONTINUOUS
  0
LAYER
  2
WHITE
  70
0
  62
7
  6
CONTINUOUS
  0
LAYER
  2
LYELLOW
  70
0
  62
51
  6
CONTINUOUS
  0
LAYER
  2
BLUE1
  70
0
  62
178
  6
CONTINUOUS
  0
LAYER
  2
GREEN1
  70
0
  62
98
  6
CONTINUOUS
  0
LAYER
  2
CYAN1
  70
0
  62
138
  6
CONTINUOUS
  0
LAYER
  2
RED1
  70
0
  62
18
  6
CONTINUOUS
  0
LAYER
  2
MAGENTA1
  70
0
  62
228
  6
CONTINUOUS
  0
LAYER
  2
BROWN1
  70
0
  62
58
  6
CONTINUOUS
  0
LAYER
  2
BLUE2
  70
0
  62
5
  6
CONTINUOUS
  0
LAYER
  2
GREEN2
  70
0
  62
3
  6
CONTINUOUS
  0
LAYER
  2
CYAN2
  70
0
  62
4
  6
CONTINUOUS
  0
LAYER
  2
RED2
  70
0
  62
1
  6
CONTINUOUS
  0
LAYER
  2
MAGENTA2
  70
0
  62
6
  6
CONTINUOUS
  0
LAYER
  2
BROWN2
  70
0
  62
54
  6
CONTINUOUS
  0
LAYER
  2
BLUE3
  70
0
  62
171
  6
CONTINUOUS
  0
LAYER
  2
GREEN3
  70
0
  62
91
  6
CONTINUOUS
  0
LAYER
  2
CYAN3
  70
0
  62
131
  6
CONTINUOUS
  0
LAYER
  2
RED3
  70
0
  62
11
  6
CONTINUOUS
  0
LAYER
  2
MAGENTA3
  70
0
  62
221
  6
CONTINUOUS
  0
LAYER
  2
YELLOW3
  70
0
  62
2
  6
CONTINUOUS
  0
LAYER
  2
BLUE4
  70
0
  62
5
  6
CONTINUOUS
  0
LAYER
  2
GREEN4
  70
0
  62
3
  6
CONTINUOUS
  0
LAYER
  2
CYAN4
  70
0
  62
4
  6
CONTINUOUS
  0
LAYER
  2
RED4
  70
0
  62
1
  6
CONTINUOUS
  0
LAYER
  2
MAGENTA4
  70
0
  62
6
  6
CONTINUOUS
  0
LAYER
  2
YELLOW4
  70
0
  62
2
  6
CONTINUOUS
  0
ENDTAB
  0
ENDSEC
  0
SECTION
  2
ENTITIES
0
LINE
8
Black
10
152.004
20
-92.9508
11
152.009
21
-92.9508
0
LINE
8
Black
10
152.009
20
-92.9508
11
152.013
21
-92.9523
0
LINE
8
Black
10
152.013
20
-92.9523
11
152.017
21
-92.953
0
LINE
8
Black
10
152.017
20
-92.953
11
152.021
21
-92.9552
0
LINE
8
Black
10
152.021
20
-92.9552
11
152.025
21
-92.9567
0
LINE
8
Black
10
152.025
20
-92.9567
11
152.028
21
-92.9595
0
LINE
8
Black
10
152.028
20
-92.9595
11
152.032
21
-92.9617
0
LINE
8
Black
10
152.032
20
-92.9617
11
152.035
21
-92.965
0
LINE
8
Black
10
152.035
20
-92.965
11
152.038
21
-92.9679
0
LINE
8
Black
10
152.038
20
-92.9679
11
152.04
21
-92.9716
0
LINE
8
Black
10
152.04
20
-92.9716
11
152.043
21
-92.975
0
LINE
8
Black
10
152.043
20
-92.975
11
152.045
21
-92.9791
0
LINE
8
Black
10
152.045
20
-92.9791
11
152.047
21
-92.9829
0
LINE
8
Black
10
152.047
20
-92.9829
11
152.048
21
-92.9872
0
LINE
8
Black
10
152.048
20
-92.9872
11
152.049
21
-92.9913
0
LINE
8
Black
10
152.049
20
-92.9913
11
152.049
21
-92.9957
0
LINE
8
Black
10
152.049
20
-92.9957
11
152.05
21
-93
0
LINE
8
Black
10
152.05
20
-93
11
152.05
21
-108
0
LINE
8
Black
10
152.05
20
-108
11
152.049
21
-108.004
0
LINE
8
Black
10
152.049
20
-108.004
11
152.049
21
-108.009
0
LINE
8
Black
10
152.049
20
-108.009
11
152.048
21
-108.013
0
LINE
8
Black
10
152.048
20
-108.013
11
152.047
21
-108.017
0
LINE
8
Black
10
152.047
20
-108.017
11
152.045
21
-108.021
0
LINE
8
Black
10
152.045
20
-108.021
11
152.043
21
-108.025
0
LINE
8
Black
10
152.043
20
-108.025
11
152.04
21
-108.028
0
LINE
8
Black
10
152.04
20
-108.028
11
152.038
21
-108.032
0
LINE
8
Black
10
152.038
20
-108.032
11
152.035
21
-108.035
0
LINE
8
Black
10
152.035
20
-108.035
11
152.032
21
-108.038
0
LINE
8
Black
10
152.032
20
-108.038
11
152.028
21
-108.04
0
LINE
8
Black
10
152.028
20
-108.04
11
152.025
21
-108.043
0
LINE
8
Black
10
152.025
20
-108.043
11
152.021
21
-108.045
0
LINE
8
Black
10
152.021
20
-108.045
11
152.017
21
-108.047
0
LINE
8
Black
10
152.017
20
-108.047
11
152.013
21
-108.048
0
LINE
8
Black
10
152.013
20
-108.048
11
152.009
21
-108.049
0
LINE
8
Black
10
152.009
20
-108.049
11
152.004
21
-108.049
0
LINE
8
Black
10
152.004
20
-108.049
11
152
21
-108.05
0
LINE
8
Black
10
152
20
-108.05
11
127
21
-108.05
0
LINE
8
Black
10
127
20
-108.05
11
126.996
21
-108.049
0
LINE
8
Black
10
126.996
20
-108.049
11
126.991
21
-108.049
0
LINE
8
Black
10
126.991
20
-108.049
11
126.987
21
-108.048
0
LINE
8
Black
10
126.987
20
-108.048
11
126.983
21
-108.047
0
LINE
8
Black
10
126.983
20
-108.047
11
126.979
21
-108.045
0
LINE
8
Black
10
126.979
20
-108.045
11
126.975
21
-108.043
0
LINE
8
Black
10
126.975
20
-108.043
11
126.972
21
-108.04
0
LINE
8
Black
10
126.972
20
-108.04
11
126.968
21
-108.038
0
LINE
8
Black
10
126.968
20
-108.038
11
126.965
21
-108.035
0
LINE
8
Black
10
126.965
20
-108.035
11
126.962
21
-108.032
0
LINE
8
Black
10
126.962
20
-108.032
11
126.96
21
-108.028
0
LINE
8
Black
10
126.96
20
-108.028
11
126.957
21
-108.025
0
LINE
8
Black
10
126.957
20
-108.025
11
126.955
21
-108.021
0
LINE
8
Black
10
126.955
20
-108.021
11
126.953
21
-108.017
0
LINE
8
Black
10
126.953
20
-108.017
11
126.952
21
-108.013
0
LINE
8
Black
10
126.952
20
-108.013
11
126.951
21
-108.009
0
LINE
8
Black
10
126.951
20
-108.009
11
126.951
21
-108.004
0
LINE
8
Black
10
126.951
20
-108.004
11
126.95
21
-108
0
LINE
8
Black
10
126.95
20
-108
11
126.95
21
-93
0
LINE
8
Black
10
126.95
20
-93
11
126.951
21
-92.9957
0
LINE
8
Black
10
126.951
20
-92.9957
11
126.951
21
-92.9913
0
LINE
8
Black
10
126.951
20
-92.9913
11
126.952
21
-92.9872
0
LINE
8
Black
10
126.952
20
-92.9872
11
126.953
21
-92.9829
0
LINE
8
Black
10
126.953
20
-92.9829
11
126.955
21
-92.9791
0
LINE
8
Black
10
126.955
20
-92.9791
11
126.957
21
-92.975
0
LINE
8
Black
10
126.957
20
-92.975
11
126.96
21
-92.9716
0
LINE
8
Black
10
126.96
20
-92.9716
11
126.962
21
-92.9679
0
LINE
8
Black
10
126.962
20
-92.9679
11
126.965
21
-92.965
0
LINE
8
Black
10
126.965
20
-92.965
11
126.968
21
-92.9617
0
LINE
8
Black
10
126.968
20
-92.9617
11
126.972
21
-92.9595
0
LINE
8
Black
10
126.972
20
-92.9595
11
126.975
21
-92.9567
0
LINE
8
Black
10
126.975
20
-92.9567
11
126.979
21
-92.9552
0
LINE
8
Black
10
126.979
20
-92.9552
11
126.983
21
-92.953
0
LINE
8
Black
10
126.983
20
-92.953
11
126.987
21
-92.9523
0
LINE
8
Black
10
126.987
20
-92.9523
11
126.991
21
-92.9508
0
LINE
8
Black
10
126.991
20
-92.9508
11
126.996
21
-92.9508
0
LINE
8
Black
10
126.996
20
-92.9508
11
127
21
-92.95
0
LINE
8
Black
10
127
20
-92.95
11
152
21
-92.95
0
LINE
8
Black
10
152
20
-92.95
11
152.004
21
-92.9508
0
LINE
8
Black
10
127.05
20
-93.05
11
127.05
21
-107.95
0
LINE
8
Black
10
127.05
20
-107.95
11
151.95
21
-107.95
0
LINE
8
Black
10
151.95
20
-107.95
11
151.95
21
-93.05
0
LINE
8
Black
10
151.95
20
-93.05
11
127.05
21
-93.05
0
CIRCLE
8
Black
10
149.66
20
-105.77
40
0.5
0
CIRCLE
8
Black
10
149.66
20
-103.23
40
0.5
0
CIRCLE
8
Black
10
149.66
20
-100.69
40
0.5
0
CIRCLE
8
Black
10
149.66
20
-98.15
40
0.5
0
CIRCLE
8
Black
10
149.66
20
-95.61
40
0.5
0
CIRCLE
8
Black
10
129.42
20
-100.02
40
0.5
0
CIRCLE
8
Black
10
129.42
20
-102.56
40
0.5
0
LINE
8
Black
10
145.187
20
-95.2131
11
145.205
21
-95.2115
0
LINE
8
Black
10
145.205
20
-95.2115
11
145.255
21
-95.225
0
LINE
8
Black
10
145.255
20
-95.225
11
145.307
21
-95.2341
0
LINE
8
Black
10
145.307
20
-95.2341
11
145.322
21
-95.2429
0
LINE
8
Black
10
145.322
20
-95.2429
11
145.339
21
-95.2475
0
LINE
8
Black
10
145.339
20
-95.2475
11
145.382
21
-95.2775
0
LINE
8
Black
10
145.382
20
-95.2775
11
145.427
21
-95.3036
0
LINE
8
Black
10
145.427
20
-95.3036
11
145.438
21
-95.3171
0
LINE
8
Black
10
145.438
20
-95.3171
11
145.453
21
-95.3272
0
LINE
8
Black
10
145.453
20
-95.3272
11
147.876
21
-97.75
0
LINE
8
Black
10
147.876
20
-97.75
11
148.912
21
-97.75
0
LINE
8
Black
10
148.912
20
-97.75
11
148.921
21
-97.725
0
LINE
8
Black
10
148.921
20
-97.725
11
149.11
21
-97.4989
0
LINE
8
Black
10
149.11
20
-97.4989
11
149.366
21
-97.3513
0
LINE
8
Black
10
149.366
20
-97.3513
11
149.657
21
-97.3
0
LINE
8
Black
10
149.657
20
-97.3
11
149.663
21
-97.3
0
LINE
8
Black
10
149.663
20
-97.3
11
149.954
21
-97.3513
0
LINE
8
Black
10
149.954
20
-97.3513
11
150.21
21
-97.4989
0
LINE
8
Black
10
150.21
20
-97.4989
11
150.399
21
-97.725
0
LINE
8
Black
10
150.399
20
-97.725
11
150.5
21
-98.0024
0
LINE
8
Black
10
150.5
20
-98.0024
11
150.5
21
-98.2976
0
LINE
8
Black
10
150.5
20
-98.2976
11
150.399
21
-98.575
0
LINE
8
Black
10
150.399
20
-98.575
11
150.21
21
-98.8011
0
LINE
8
Black
10
150.21
20
-98.8011
11
149.954
21
-98.9487
0
LINE
8
Black
10
149.954
20
-98.9487
11
149.663
21
-99
0
LINE
8
Black
10
149.663
20
-99
11
149.657
21
-99
0
LINE
8
Black
10
149.657
20
-99
11
149.366
21
-98.9487
0
LINE
8
Black
10
149.366
20
-98.9487
11
149.11
21
-98.8011
0
LINE
8
Black
10
149.11
20
-98.8011
11
148.921
21
-98.575
0
LINE
8
Black
10
148.921
20
-98.575
11
148.912
21
-98.55
0
LINE
8
Black
10
148.912
20
-98.55
11
147.71
21
-98.55
0
LINE
8
Black
10
147.71
20
-98.55
11
147.693
21
-98.5469
0
LINE
8
Black
10
147.693
20
-98.5469
11
147.675
21
-98.5485
0
LINE
8
Black
10
147.675
20
-98.5485
11
147.625
21
-98.535
0
LINE
8
Black
10
147.625
20
-98.535
11
147.573
21
-98.5259
0
LINE
8
Black
10
147.573
20
-98.5259
11
147.558
21
-98.5171
0
LINE
8
Black
10
147.558
20
-98.5171
11
147.541
21
-98.5125
0
LINE
8
Black
10
147.541
20
-98.5125
11
147.498
21
-98.4825
0
LINE
8
Black
10
147.498
20
-98.4825
11
147.453
21
-98.4564
0
LINE
8
Black
10
147.453
20
-98.4564
11
147.442
21
-98.4429
0
LINE
8
Black
10
147.442
20
-98.4429
11
147.427
21
-98.4328
0
LINE
8
Black
10
147.427
20
-98.4328
11
145.004
21
-96.01
0
LINE
8
Black
10
145.004
20
-96.01
11
135.29
21
-96.01
0
LINE
8
Black
10
135.29
20
-96.01
11
135.29
21
-97.055
0
LINE
8
Black
10
135.29
20
-97.055
11
135.43
21
-97.055
0
LINE
8
Black
10
135.43
20
-97.055
11
135.43
21
-97.15
0
LINE
8
Black
10
135.43
20
-97.15
11
136.52
21
-97.15
0
LINE
8
Black
10
136.52
20
-97.15
11
136.52
21
-96.95
0
LINE
8
Black
10
136.52
20
-96.95
11
137.02
21
-96.95
0
LINE
8
Black
10
137.02
20
-96.95
11
137.02
21
-97.85
0
LINE
8
Black
10
137.02
20
-97.85
11
137.02
21
-102.4
0
LINE
8
Black
10
137.02
20
-102.4
11
137.018
21
-102.411
0
LINE
8
Black
10
137.018
20
-102.411
11
137.019
21
-102.422
0
LINE
8
Black
10
137.019
20
-102.422
11
137.011
21
-102.453
0
LINE
8
Black
10
137.011
20
-102.453
11
137.005
21
-102.486
0
LINE
8
Black
10
137.005
20
-102.486
11
136.999
21
-102.495
0
LINE
8
Black
10
136.999
20
-102.495
11
136.997
21
-102.506
0
LINE
8
Black
10
136.997
20
-102.506
11
136.978
21
-102.532
0
LINE
8
Black
10
136.978
20
-102.532
11
136.962
21
-102.561
0
LINE
8
Black
10
136.962
20
-102.561
11
136.953
21
-102.568
0
LINE
8
Black
10
136.953
20
-102.568
11
136.947
21
-102.577
0
LINE
8
Black
10
136.947
20
-102.577
11
136.022
21
-103.502
0
LINE
8
Black
10
136.022
20
-103.502
11
136.013
21
-103.508
0
LINE
8
Black
10
136.013
20
-103.508
11
136.006
21
-103.517
0
LINE
8
Black
10
136.006
20
-103.517
11
135.977
21
-103.533
0
LINE
8
Black
10
135.977
20
-103.533
11
135.951
21
-103.552
0
LINE
8
Black
10
135.951
20
-103.552
11
135.94
21
-103.554
0
LINE
8
Black
10
135.94
20
-103.554
11
135.931
21
-103.56
0
LINE
8
Black
10
135.931
20
-103.56
11
135.898
21
-103.566
0
LINE
8
Black
10
135.898
20
-103.566
11
135.867
21
-103.574
0
LINE
8
Black
10
135.867
20
-103.574
11
135.856
21
-103.573
0
LINE
8
Black
10
135.856
20
-103.573
11
135.845
21
-103.575
0
LINE
8
Black
10
135.845
20
-103.575
11
135.315
21
-103.575
0
LINE
8
Black
10
135.315
20
-103.575
11
135.315
21
-103.625
0
LINE
8
Black
10
135.315
20
-103.625
11
134.79
21
-103.625
0
LINE
8
Black
10
134.79
20
-103.625
11
134.79
21
-103.996
0
LINE
8
Black
10
134.79
20
-103.996
11
136.854
21
-106.06
0
LINE
8
Black
10
136.854
20
-106.06
11
138.9
21
-106.06
0
LINE
8
Black
10
138.9
20
-106.06
11
138.9
21
-105.86
0
LINE
8
Black
10
138.9
20
-105.86
11
139.4
21
-105.86
0
LINE
8
Black
10
139.4
20
-105.86
11
139.4
21
-106.76
0
LINE
8
Black
10
139.4
20
-106.76
11
138.9
21
-106.76
0
LINE
8
Black
10
138.9
20
-106.76
11
138.9
21
-106.56
0
LINE
8
Black
10
138.9
20
-106.56
11
136.75
21
-106.56
0
LINE
8
Black
10
136.75
20
-106.56
11
136.739
21
-106.558
0
LINE
8
Black
10
136.739
20
-106.558
11
136.728
21
-106.559
0
LINE
8
Black
10
136.728
20
-106.559
11
136.697
21
-106.551
0
LINE
8
Black
10
136.697
20
-106.551
11
136.664
21
-106.545
0
LINE
8
Black
10
136.664
20
-106.545
11
136.655
21
-106.539
0
LINE
8
Black
10
136.655
20
-106.539
11
136.644
21
-106.537
0
LINE
8
Black
10
136.644
20
-106.537
11
136.618
21
-106.518
0
LINE
8
Black
10
136.618
20
-106.518
11
136.589
21
-106.502
0
LINE
8
Black
10
136.589
20
-106.502
11
136.582
21
-106.493
0
LINE
8
Black
10
136.582
20
-106.493
11
136.573
21
-106.487
0
LINE
8
Black
10
136.573
20
-106.487
11
134.363
21
-104.277
0
LINE
8
Black
10
134.363
20
-104.277
11
134.357
21
-104.268
0
LINE
8
Black
10
134.357
20
-104.268
11
134.348
21
-104.261
0
LINE
8
Black
10
134.348
20
-104.261
11
134.332
21
-104.232
0
LINE
8
Black
10
134.332
20
-104.232
11
134.313
21
-104.206
0
LINE
8
Black
10
134.313
20
-104.206
11
134.311
21
-104.195
0
LINE
8
Black
10
134.311
20
-104.195
11
134.305
21
-104.186
0
LINE
8
Black
10
134.305
20
-104.186
11
134.299
21
-104.153
0
LINE
8
Black
10
134.299
20
-104.153
11
134.291
21
-104.122
0
LINE
8
Black
10
134.291
20
-104.122
11
134.292
21
-104.111
0
LINE
8
Black
10
134.292
20
-104.111
11
134.29
21
-104.1
0
LINE
8
Black
10
134.29
20
-104.1
11
134.29
21
-103.625
0
LINE
8
Black
10
134.29
20
-103.625
11
133.765
21
-103.625
0
LINE
8
Black
10
133.765
20
-103.625
11
133.765
21
-103.025
0
LINE
8
Black
10
133.765
20
-103.025
11
135.315
21
-103.025
0
LINE
8
Black
10
135.315
20
-103.025
11
135.315
21
-103.075
0
LINE
8
Black
10
135.315
20
-103.075
11
135.741
21
-103.075
0
LINE
8
Black
10
135.741
20
-103.075
11
136.52
21
-102.296
0
LINE
8
Black
10
136.52
20
-102.296
11
136.52
21
-97.65
0
LINE
8
Black
10
136.52
20
-97.65
11
135.43
21
-97.65
0
LINE
8
Black
10
135.43
20
-97.65
11
135.43
21
-97.805
0
LINE
8
Black
10
135.43
20
-97.805
11
134.63
21
-97.805
0
LINE
8
Black
10
134.63
20
-97.805
11
134.63
21
-97.055
0
LINE
8
Black
10
134.63
20
-97.055
11
134.79
21
-97.055
0
LINE
8
Black
10
134.79
20
-97.055
11
134.79
21
-95.985
0
LINE
8
Black
10
134.79
20
-95.985
11
134.64
21
-95.985
0
LINE
8
Black
10
134.64
20
-95.985
11
134.64
21
-95.235
0
LINE
8
Black
10
134.64
20
-95.235
11
134.902
21
-95.235
0
LINE
8
Black
10
134.902
20
-95.235
11
134.903
21
-95.2341
0
LINE
8
Black
10
134.903
20
-95.2341
11
135.04
21
-95.21
0
LINE
8
Black
10
135.04
20
-95.21
11
145.17
21
-95.21
0
LINE
8
Black
10
145.17
20
-95.21
11
145.187
21
-95.2131
0
LINE
8
Black
10
140.715
20
-103.625
11
140.19
21
-103.625
0
LINE
8
Black
10
140.19
20
-103.625
11
140.19
21
-103.786
0
LINE
8
Black
10
140.19
20
-103.786
11
140.934
21
-104.53
0
LINE
8
Black
10
140.934
20
-104.53
11
142.11
21
-104.53
0
LINE
8
Black
10
142.11
20
-104.53
11
142.11
21
-104.28
0
LINE
8
Black
10
142.11
20
-104.28
11
143.11
21
-104.28
0
LINE
8
Black
10
143.11
20
-104.28
11
143.11
21
-105.28
0
LINE
8
Black
10
143.11
20
-105.28
11
142.86
21
-105.28
0
LINE
8
Black
10
142.86
20
-105.28
11
142.86
21
-105.92
0
LINE
8
Black
10
142.86
20
-105.92
11
142.858
21
-105.931
0
LINE
8
Black
10
142.858
20
-105.931
11
142.859
21
-105.942
0
LINE
8
Black
10
142.859
20
-105.942
11
142.851
21
-105.973
0
LINE
8
Black
10
142.851
20
-105.973
11
142.845
21
-106.006
0
LINE
8
Black
10
142.845
20
-106.006
11
142.839
21
-106.015
0
LINE
8
Black
10
142.839
20
-106.015
11
142.837
21
-106.026
0
LINE
8
Black
10
142.837
20
-106.026
11
142.818
21
-106.052
0
LINE
8
Black
10
142.818
20
-106.052
11
142.802
21
-106.081
0
LINE
8
Black
10
142.802
20
-106.081
11
142.793
21
-106.088
0
LINE
8
Black
10
142.793
20
-106.088
11
142.787
21
-106.097
0
LINE
8
Black
10
142.787
20
-106.097
11
142.397
21
-106.487
0
LINE
8
Black
10
142.397
20
-106.487
11
142.388
21
-106.493
0
LINE
8
Black
10
142.388
20
-106.493
11
142.381
21
-106.502
0
LINE
8
Black
10
142.381
20
-106.502
11
142.352
21
-106.518
0
LINE
8
Black
10
142.352
20
-106.518
11
142.326
21
-106.537
0
LINE
8
Black
10
142.326
20
-106.537
11
142.315
21
-106.539
0
LINE
8
Black
10
142.315
20
-106.539
11
142.306
21
-106.545
0
LINE
8
Black
10
142.306
20
-106.545
11
142.273
21
-106.551
0
LINE
8
Black
10
142.273
20
-106.551
11
142.242
21
-106.559
0
LINE
8
Black
10
142.242
20
-106.559
11
142.231
21
-106.558
0
LINE
8
Black
10
142.231
20
-106.558
11
142.22
21
-106.56
0
LINE
8
Black
10
142.22
20
-106.56
11
140.9
21
-106.56
0
LINE
8
Black
10
140.9
20
-106.56
11
140.9
21
-106.76
0
LINE
8
Black
10
140.9
20
-106.76
11
140.4
21
-106.76
0
LINE
8
Black
10
140.4
20
-106.76
11
140.4
21
-105.86
0
LINE
8
Black
10
140.4
20
-105.86
11
140.9
21
-105.86
0
LINE
8
Black
10
140.9
20
-105.86
11
140.9
21
-106.06
0
LINE
8
Black
10
140.9
20
-106.06
11
142.116
21
-106.06
0
LINE
8
Black
10
142.116
20
-106.06
11
142.36
21
-105.816
0
LINE
8
Black
10
142.36
20
-105.816
11
142.36
21
-105.28
0
LINE
8
Black
10
142.36
20
-105.28
11
142.11
21
-105.28
0
LINE
8
Black
10
142.11
20
-105.28
11
142.11
21
-105.03
0
LINE
8
Black
10
142.11
20
-105.03
11
140.83
21
-105.03
0
LINE
8
Black
10
140.83
20
-105.03
11
140.819
21
-105.028
0
LINE
8
Black
10
140.819
20
-105.028
11
140.808
21
-105.029
0
LINE
8
Black
10
140.808
20
-105.029
11
140.777
21
-105.021
0
LINE
8
Black
10
140.777
20
-105.021
11
140.744
21
-105.015
0
LINE
8
Black
10
140.744
20
-105.015
11
140.735
21
-105.009
0
LINE
8
Black
10
140.735
20
-105.009
11
140.724
21
-105.007
0
LINE
8
Black
10
140.724
20
-105.007
11
140.698
21
-104.988
0
LINE
8
Black
10
140.698
20
-104.988
11
140.669
21
-104.972
0
LINE
8
Black
10
140.669
20
-104.972
11
140.662
21
-104.963
0
LINE
8
Black
10
140.662
20
-104.963
11
140.653
21
-104.957
0
LINE
8
Black
10
140.653
20
-104.957
11
139.763
21
-104.067
0
LINE
8
Black
10
139.763
20
-104.067
11
139.757
21
-104.058
0
LINE
8
Black
10
139.757
20
-104.058
11
139.748
21
-104.051
0
LINE
8
Black
10
139.748
20
-104.051
11
139.732
21
-104.022
0
LINE
8
Black
10
139.732
20
-104.022
11
139.713
21
-103.996
0
LINE
8
Black
10
139.713
20
-103.996
11
139.711
21
-103.985
0
LINE
8
Black
10
139.711
20
-103.985
11
139.705
21
-103.976
0
LINE
8
Black
10
139.705
20
-103.976
11
139.699
21
-103.943
0
LINE
8
Black
10
139.699
20
-103.943
11
139.691
21
-103.912
0
LINE
8
Black
10
139.691
20
-103.912
11
139.692
21
-103.901
0
LINE
8
Black
10
139.692
20
-103.901
11
139.69
21
-103.89
0
LINE
8
Black
10
139.69
20
-103.89
11
139.69
21
-103.625
0
LINE
8
Black
10
139.69
20
-103.625
11
139.165
21
-103.625
0
LINE
8
Black
10
139.165
20
-103.625
11
139.165
21
-103.025
0
LINE
8
Black
10
139.165
20
-103.025
11
140.715
21
-103.025
0
LINE
8
Black
10
140.715
20
-103.025
11
140.715
21
-103.625
0
LINE
8
Black
10
145.61
20
-104.53
11
146.88
21
-104.53
0
LINE
8
Black
10
146.88
20
-104.53
11
146.891
21
-104.532
0
LINE
8
Black
10
146.891
20
-104.532
11
146.902
21
-104.531
0
LINE
8
Black
10
146.902
20
-104.531
11
146.933
21
-104.539
0
LINE
8
Black
10
146.933
20
-104.539
11
146.966
21
-104.545
0
LINE
8
Black
10
146.966
20
-104.545
11
146.975
21
-104.551
0
LINE
8
Black
10
146.975
20
-104.551
11
146.986
21
-104.553
0
LINE
8
Black
10
146.986
20
-104.553
11
147.012
21
-104.572
0
LINE
8
Black
10
147.012
20
-104.572
11
147.041
21
-104.588
0
LINE
8
Black
10
147.041
20
-104.588
11
147.048
21
-104.597
0
LINE
8
Black
10
147.048
20
-104.597
11
147.057
21
-104.603
0
LINE
8
Black
10
147.057
20
-104.603
11
147.974
21
-105.52
0
LINE
8
Black
10
147.974
20
-105.52
11
148.81
21
-105.52
0
LINE
8
Black
10
148.81
20
-105.52
11
148.81
21
-104.92
0
LINE
8
Black
10
148.81
20
-104.92
11
150.51
21
-104.92
0
LINE
8
Black
10
150.51
20
-104.92
11
150.51
21
-106.62
0
LINE
8
Black
10
150.51
20
-106.62
11
148.81
21
-106.62
0
LINE
8
Black
10
148.81
20
-106.62
11
148.81
21
-106.02
0
LINE
8
Black
10
148.81
20
-106.02
11
147.87
21
-106.02
0
LINE
8
Black
10
147.87
20
-106.02
11
147.859
21
-106.018
0
LINE
8
Black
10
147.859
20
-106.018
11
147.848
21
-106.019
0
LINE
8
Black
10
147.848
20
-106.019
11
147.817
21
-106.011
0
LINE
8
Black
10
147.817
20
-106.011
11
147.784
21
-106.005
0
LINE
8
Black
10
147.784
20
-106.005
11
147.775
21
-105.999
0
LINE
8
Black
10
147.775
20
-105.999
11
147.764
21
-105.997
0
LINE
8
Black
10
147.764
20
-105.997
11
147.738
21
-105.978
0
LINE
8
Black
10
147.738
20
-105.978
11
147.709
21
-105.962
0
LINE
8
Black
10
147.709
20
-105.962
11
147.702
21
-105.953
0
LINE
8
Black
10
147.702
20
-105.953
11
147.693
21
-105.947
0
LINE
8
Black
10
147.693
20
-105.947
11
146.776
21
-105.03
0
LINE
8
Black
10
146.776
20
-105.03
11
145.61
21
-105.03
0
LINE
8
Black
10
145.61
20
-105.03
11
145.61
21
-105.28
0
LINE
8
Black
10
145.61
20
-105.28
11
144.61
21
-105.28
0
LINE
8
Black
10
144.61
20
-105.28
11
144.61
21
-104.28
0
LINE
8
Black
10
144.61
20
-104.28
11
145.61
21
-104.28
0
LINE
8
Black
10
145.61
20
-104.28
11
145.61
21
-104.53
0
LINE
8
Black
10
145.6
20
-102.41
11
147.23
21
-102.41
0
LINE
8
Black
10
147.23
20
-102.41
11
147.241
21
-102.412
0
LINE
8
Black
10
147.241
20
-102.412
11
147.252
21
-102.411
0
LINE
8
Black
10
147.252
20
-102.411
11
147.283
21
-102.419
0
LINE
8
Black
10
147.283
20
-102.419
11
147.316
21
-102.425
0
LINE
8
Black
10
147.316
20
-102.425
11
147.325
21
-102.431
0
LINE
8
Black
10
147.325
20
-102.431
11
147.336
21
-102.433
0
LINE
8
Black
10
147.336
20
-102.433
11
147.362
21
-102.452
0
LINE
8
Black
10
147.362
20
-102.452
11
147.391
21
-102.468
0
LINE
8
Black
10
147.391
20
-102.468
11
147.398
21
-102.477
0
LINE
8
Black
10
147.398
20
-102.477
11
147.407
21
-102.483
0
LINE
8
Black
10
147.407
20
-102.483
11
147.904
21
-102.98
0
LINE
8
Black
10
147.904
20
-102.98
11
148.857
21
-102.98
0
LINE
8
Black
10
148.857
20
-102.98
11
148.921
21
-102.805
0
LINE
8
Black
10
148.921
20
-102.805
11
149.11
21
-102.579
0
LINE
8
Black
10
149.11
20
-102.579
11
149.366
21
-102.431
0
LINE
8
Black
10
149.366
20
-102.431
11
149.657
21
-102.38
0
LINE
8
Black
10
149.657
20
-102.38
11
149.663
21
-102.38
0
LINE
8
Black
10
149.663
20
-102.38
11
149.954
21
-102.431
0
LINE
8
Black
10
149.954
20
-102.431
11
150.21
21
-102.579
0
LINE
8
Black
10
150.21
20
-102.579
11
150.399
21
-102.805
0
LINE
8
Black
10
150.399
20
-102.805
11
150.5
21
-103.082
0
LINE
8
Black
10
150.5
20
-103.082
11
150.5
21
-103.378
0
LINE
8
Black
10
150.5
20
-103.378
11
150.399
21
-103.655
0
LINE
8
Black
10
150.399
20
-103.655
11
150.21
21
-103.881
0
LINE
8
Black
10
150.21
20
-103.881
11
149.954
21
-104.029
0
LINE
8
Black
10
149.954
20
-104.029
11
149.663
21
-104.08
0
LINE
8
Black
10
149.663
20
-104.08
11
149.657
21
-104.08
0
LINE
8
Black
10
149.657
20
-104.08
11
149.366
21
-104.029
0
LINE
8
Black
10
149.366
20
-104.029
11
149.11
21
-103.881
0
LINE
8
Black
10
149.11
20
-103.881
11
148.921
21
-103.655
0
LINE
8
Black
10
148.921
20
-103.655
11
148.857
21
-103.48
0
LINE
8
Black
10
148.857
20
-103.48
11
147.8
21
-103.48
0
LINE
8
Black
10
147.8
20
-103.48
11
147.789
21
-103.478
0
LINE
8
Black
10
147.789
20
-103.478
11
147.778
21
-103.479
0
LINE
8
Black
10
147.778
20
-103.479
11
147.747
21
-103.471
0
LINE
8
Black
10
147.747
20
-103.471
11
147.714
21
-103.465
0
LINE
8
Black
10
147.714
20
-103.465
11
147.705
21
-103.459
0
LINE
8
Black
10
147.705
20
-103.459
11
147.694
21
-103.457
0
LINE
8
Black
10
147.694
20
-103.457
11
147.668
21
-103.438
0
LINE
8
Black
10
147.668
20
-103.438
11
147.639
21
-103.422
0
LINE
8
Black
10
147.639
20
-103.422
11
147.632
21
-103.413
0
LINE
8
Black
10
147.632
20
-103.413
11
147.623
21
-103.407
0
LINE
8
Black
10
147.623
20
-103.407
11
147.126
21
-102.91
0
LINE
8
Black
10
147.126
20
-102.91
11
145.6
21
-102.91
0
LINE
8
Black
10
145.6
20
-102.91
11
145.6
21
-103.16
0
LINE
8
Black
10
145.6
20
-103.16
11
144.6
21
-103.16
0
LINE
8
Black
10
144.6
20
-103.16
11
144.6
21
-102.16
0
LINE
8
Black
10
144.6
20
-102.16
11
145.6
21
-102.16
0
LINE
8
Black
10
145.6
20
-102.16
11
145.6
21
-102.41
0
LINE
8
Black
10
129.714
20
-101.761
11
129.97
21
-101.909
0
LINE
8
Black
10
129.97
20
-101.909
11
130.159
21
-102.135
0
LINE
8
Black
10
130.159
20
-102.135
11
130.223
21
-102.31
0
LINE
8
Black
10
130.223
20
-102.31
11
130.366
21
-102.31
0
LINE
8
Black
10
130.366
20
-102.31
11
130.743
21
-101.933
0
LINE
8
Black
10
130.743
20
-101.933
11
130.752
21
-101.927
0
LINE
8
Black
10
130.752
20
-101.927
11
130.759
21
-101.918
0
LINE
8
Black
10
130.759
20
-101.918
11
130.788
21
-101.902
0
LINE
8
Black
10
130.788
20
-101.902
11
130.814
21
-101.883
0
LINE
8
Black
10
130.814
20
-101.883
11
130.825
21
-101.881
0
LINE
8
Black
10
130.825
20
-101.881
11
130.834
21
-101.875
0
LINE
8
Black
10
130.834
20
-101.875
11
130.867
21
-101.869
0
LINE
8
Black
10
130.867
20
-101.869
11
130.898
21
-101.861
0
LINE
8
Black
10
130.898
20
-101.861
11
130.909
21
-101.862
0
LINE
8
Black
10
130.909
20
-101.862
11
130.92
21
-101.86
0
LINE
8
Black
10
130.92
20
-101.86
11
131.725
21
-101.86
0
LINE
8
Black
10
131.725
20
-101.86
11
131.725
21
-101.71
0
LINE
8
Black
10
131.725
20
-101.71
11
132.475
21
-101.71
0
LINE
8
Black
10
132.475
20
-101.71
11
132.475
21
-101.86
0
LINE
8
Black
10
132.475
20
-101.86
11
133
21
-101.86
0
LINE
8
Black
10
133
20
-101.86
11
133.023
21
-101.847
0
LINE
8
Black
10
133.023
20
-101.847
11
133.049
21
-101.828
0
LINE
8
Black
10
133.049
20
-101.828
11
133.06
21
-101.826
0
LINE
8
Black
10
133.06
20
-101.826
11
133.069
21
-101.82
0
LINE
8
Black
10
133.069
20
-101.82
11
133.102
21
-101.814
0
LINE
8
Black
10
133.102
20
-101.814
11
133.133
21
-101.806
0
LINE
8
Black
10
133.133
20
-101.806
11
133.144
21
-101.807
0
LINE
8
Black
10
133.144
20
-101.807
11
133.155
21
-101.805
0
LINE
8
Black
10
133.155
20
-101.805
11
133.765
21
-101.805
0
LINE
8
Black
10
133.765
20
-101.805
11
133.765
21
-101.755
0
LINE
8
Black
10
133.765
20
-101.755
11
135.315
21
-101.755
0
LINE
8
Black
10
135.315
20
-101.755
11
135.315
21
-102.355
0
LINE
8
Black
10
135.315
20
-102.355
11
133.765
21
-102.355
0
LINE
8
Black
10
133.765
20
-102.355
11
133.765
21
-102.305
0
LINE
8
Black
10
133.765
20
-102.305
11
133.255
21
-102.305
0
LINE
8
Black
10
133.255
20
-102.305
11
133.232
21
-102.318
0
LINE
8
Black
10
133.232
20
-102.318
11
133.206
21
-102.337
0
LINE
8
Black
10
133.206
20
-102.337
11
133.195
21
-102.339
0
LINE
8
Black
10
133.195
20
-102.339
11
133.186
21
-102.345
0
LINE
8
Black
10
133.186
20
-102.345
11
133.153
21
-102.351
0
LINE
8
Black
10
133.153
20
-102.351
11
133.122
21
-102.359
0
LINE
8
Black
10
133.122
20
-102.359
11
133.111
21
-102.358
0
LINE
8
Black
10
133.111
20
-102.358
11
133.1
21
-102.36
0
LINE
8
Black
10
133.1
20
-102.36
11
132.475
21
-102.36
0
LINE
8
Black
10
132.475
20
-102.36
11
132.475
21
-102.51
0
LINE
8
Black
10
132.475
20
-102.51
11
131.725
21
-102.51
0
LINE
8
Black
10
131.725
20
-102.51
11
131.725
21
-102.36
0
LINE
8
Black
10
131.725
20
-102.36
11
131.024
21
-102.36
0
LINE
8
Black
10
131.024
20
-102.36
11
130.647
21
-102.737
0
LINE
8
Black
10
130.647
20
-102.737
11
130.638
21
-102.743
0
LINE
8
Black
10
130.638
20
-102.743
11
130.631
21
-102.752
0
LINE
8
Black
10
130.631
20
-102.752
11
130.602
21
-102.768
0
LINE
8
Black
10
130.602
20
-102.768
11
130.576
21
-102.787
0
LINE
8
Black
10
130.576
20
-102.787
11
130.565
21
-102.789
0
LINE
8
Black
10
130.565
20
-102.789
11
130.556
21
-102.795
0
LINE
8
Black
10
130.556
20
-102.795
11
130.523
21
-102.801
0
LINE
8
Black
10
130.523
20
-102.801
11
130.492
21
-102.809
0
LINE
8
Black
10
130.492
20
-102.809
11
130.481
21
-102.808
0
LINE
8
Black
10
130.481
20
-102.808
11
130.47
21
-102.81
0
LINE
8
Black
10
130.47
20
-102.81
11
130.223
21
-102.81
0
LINE
8
Black
10
130.223
20
-102.81
11
130.159
21
-102.985
0
LINE
8
Black
10
130.159
20
-102.985
11
129.97
21
-103.211
0
LINE
8
Black
10
129.97
20
-103.211
11
129.714
21
-103.359
0
LINE
8
Black
10
129.714
20
-103.359
11
129.423
21
-103.41
0
LINE
8
Black
10
129.423
20
-103.41
11
129.417
21
-103.41
0
LINE
8
Black
10
129.417
20
-103.41
11
129.126
21
-103.359
0
LINE
8
Black
10
129.126
20
-103.359
11
128.87
21
-103.211
0
LINE
8
Black
10
128.87
20
-103.211
11
128.681
21
-102.985
0
LINE
8
Black
10
128.681
20
-102.985
11
128.58
21
-102.708
0
LINE
8
Black
10
128.58
20
-102.708
11
128.58
21
-102.412
0
LINE
8
Black
10
128.58
20
-102.412
11
128.681
21
-102.135
0
LINE
8
Black
10
128.681
20
-102.135
11
128.87
21
-101.909
0
LINE
8
Black
10
128.87
20
-101.909
11
129.126
21
-101.761
0
LINE
8
Black
10
129.126
20
-101.761
11
129.417
21
-101.71
0
LINE
8
Black
10
129.417
20
-101.71
11
129.423
21
-101.71
0
LINE
8
Black
10
129.423
20
-101.71
11
129.714
21
-101.761
0
LINE
8
Black
10
138.52
20
-97.85
11
138.52
21
-101.656
0
LINE
8
Black
10
138.52
20
-101.656
11
138.669
21
-101.805
0
LINE
8
Black
10
138.669
20
-101.805
11
139.165
21
-101.805
0
LINE
8
Black
10
139.165
20
-101.805
11
139.165
21
-101.755
0
LINE
8
Black
10
139.165
20
-101.755
11
140.715
21
-101.755
0
LINE
8
Black
10
140.715
20
-101.755
11
140.715
21
-101.805
0
LINE
8
Black
10
140.715
20
-101.805
11
141.995
21
-101.805
0
LINE
8
Black
10
141.995
20
-101.805
11
142.006
21
-101.807
0
LINE
8
Black
10
142.006
20
-101.807
11
142.017
21
-101.806
0
LINE
8
Black
10
142.017
20
-101.806
11
142.048
21
-101.814
0
LINE
8
Black
10
142.048
20
-101.814
11
142.081
21
-101.82
0
LINE
8
Black
10
142.081
20
-101.82
11
142.09
21
-101.826
0
LINE
8
Black
10
142.09
20
-101.826
11
142.101
21
-101.828
0
LINE
8
Black
10
142.101
20
-101.828
11
142.127
21
-101.847
0
LINE
8
Black
10
142.127
20
-101.847
11
142.156
21
-101.863
0
LINE
8
Black
10
142.156
20
-101.863
11
142.163
21
-101.872
0
LINE
8
Black
10
142.163
20
-101.872
11
142.172
21
-101.878
0
LINE
8
Black
10
142.172
20
-101.878
11
142.454
21
-102.16
0
LINE
8
Black
10
142.454
20
-102.16
11
143.1
21
-102.16
0
LINE
8
Black
10
143.1
20
-102.16
11
143.1
21
-103.16
0
LINE
8
Black
10
143.1
20
-103.16
11
142.1
21
-103.16
0
LINE
8
Black
10
142.1
20
-103.16
11
142.1
21
-102.514
0
LINE
8
Black
10
142.1
20
-102.514
11
141.891
21
-102.305
0
LINE
8
Black
10
141.891
20
-102.305
11
140.715
21
-102.305
0
LINE
8
Black
10
140.715
20
-102.305
11
140.715
21
-102.355
0
LINE
8
Black
10
140.715
20
-102.355
11
139.165
21
-102.355
0
LINE
8
Black
10
139.165
20
-102.355
11
139.165
21
-102.305
0
LINE
8
Black
10
139.165
20
-102.305
11
138.565
21
-102.305
0
LINE
8
Black
10
138.565
20
-102.305
11
138.554
21
-102.303
0
LINE
8
Black
10
138.554
20
-102.303
11
138.543
21
-102.304
0
LINE
8
Black
10
138.543
20
-102.304
11
138.512
21
-102.296
0
LINE
8
Black
10
138.512
20
-102.296
11
138.479
21
-102.29
0
LINE
8
Black
10
138.479
20
-102.29
11
138.47
21
-102.284
0
LINE
8
Black
10
138.47
20
-102.284
11
138.459
21
-102.282
0
LINE
8
Black
10
138.459
20
-102.282
11
138.433
21
-102.263
0
LINE
8
Black
10
138.433
20
-102.263
11
138.404
21
-102.247
0
LINE
8
Black
10
138.404
20
-102.247
11
138.397
21
-102.238
0
LINE
8
Black
10
138.397
20
-102.238
11
138.388
21
-102.232
0
LINE
8
Black
10
138.388
20
-102.232
11
138.093
21
-101.937
0
LINE
8
Black
10
138.093
20
-101.937
11
138.087
21
-101.928
0
LINE
8
Black
10
138.087
20
-101.928
11
138.078
21
-101.921
0
LINE
8
Black
10
138.078
20
-101.921
11
138.062
21
-101.892
0
LINE
8
Black
10
138.062
20
-101.892
11
138.043
21
-101.866
0
LINE
8
Black
10
138.043
20
-101.866
11
138.041
21
-101.855
0
LINE
8
Black
10
138.041
20
-101.855
11
138.035
21
-101.846
0
LINE
8
Black
10
138.035
20
-101.846
11
138.029
21
-101.813
0
LINE
8
Black
10
138.029
20
-101.813
11
138.021
21
-101.782
0
LINE
8
Black
10
138.021
20
-101.782
11
138.022
21
-101.771
0
LINE
8
Black
10
138.022
20
-101.771
11
138.02
21
-101.76
0
LINE
8
Black
10
138.02
20
-101.76
11
138.02
21
-97.4
0
LINE
8
Black
10
138.02
20
-97.4
11
138.02
21
-96.95
0
LINE
8
Black
10
138.02
20
-96.95
11
138.52
21
-96.95
0
LINE
8
Black
10
138.52
20
-96.95
11
138.52
21
-97.85
0
LINE
8
Black
10
149.954
20
-99.8913
11
150.21
21
-100.039
0
LINE
8
Black
10
150.21
20
-100.039
11
150.399
21
-100.265
0
LINE
8
Black
10
150.399
20
-100.265
11
150.5
21
-100.542
0
LINE
8
Black
10
150.5
20
-100.542
11
150.5
21
-100.838
0
LINE
8
Black
10
150.5
20
-100.838
11
150.399
21
-101.115
0
LINE
8
Black
10
150.399
20
-101.115
11
150.21
21
-101.341
0
LINE
8
Black
10
150.21
20
-101.341
11
149.954
21
-101.489
0
LINE
8
Black
10
149.954
20
-101.489
11
149.663
21
-101.54
0
LINE
8
Black
10
149.663
20
-101.54
11
149.657
21
-101.54
0
LINE
8
Black
10
149.657
20
-101.54
11
149.366
21
-101.489
0
LINE
8
Black
10
149.366
20
-101.489
11
149.11
21
-101.341
0
LINE
8
Black
10
149.11
20
-101.341
11
148.921
21
-101.115
0
LINE
8
Black
10
148.921
20
-101.115
11
148.892
21
-101.035
0
LINE
8
Black
10
148.892
20
-101.035
11
140.715
21
-101.035
0
LINE
8
Black
10
140.715
20
-101.035
11
140.715
21
-101.085
0
LINE
8
Black
10
140.715
20
-101.085
11
139.165
21
-101.085
0
LINE
8
Black
10
139.165
20
-101.085
11
139.165
21
-100.485
0
LINE
8
Black
10
139.165
20
-100.485
11
140.715
21
-100.485
0
LINE
8
Black
10
140.715
20
-100.485
11
140.715
21
-100.535
0
LINE
8
Black
10
140.715
20
-100.535
11
148.822
21
-100.535
0
LINE
8
Black
10
148.822
20
-100.535
11
148.921
21
-100.265
0
LINE
8
Black
10
148.921
20
-100.265
11
149.11
21
-100.039
0
LINE
8
Black
10
149.11
20
-100.039
11
149.366
21
-99.8913
0
LINE
8
Black
10
149.366
20
-99.8913
11
149.657
21
-99.84
0
LINE
8
Black
10
149.657
20
-99.84
11
149.663
21
-99.84
0
LINE
8
Black
10
149.663
20
-99.84
11
149.954
21
-99.8913
0
LINE
8
Black
10
130.27
20
-99.77
11
130.5
21
-99.77
0
LINE
8
Black
10
130.5
20
-99.77
11
130.511
21
-99.7719
0
LINE
8
Black
10
130.511
20
-99.7719
11
130.522
21
-99.771
0
LINE
8
Black
10
130.522
20
-99.771
11
130.553
21
-99.7794
0
LINE
8
Black
10
130.553
20
-99.7794
11
130.586
21
-99.7851
0
LINE
8
Black
10
130.586
20
-99.7851
11
130.595
21
-99.7906
0
LINE
8
Black
10
130.595
20
-99.7906
11
130.606
21
-99.7934
0
LINE
8
Black
10
130.606
20
-99.7934
11
130.632
21
-99.8122
0
LINE
8
Black
10
130.632
20
-99.8122
11
130.661
21
-99.8285
0
LINE
8
Black
10
130.661
20
-99.8285
11
130.668
21
-99.8369
0
LINE
8
Black
10
130.668
20
-99.8369
11
130.677
21
-99.8432
0
LINE
8
Black
10
130.677
20
-99.8432
11
131.194
21
-100.36
0
LINE
8
Black
10
131.194
20
-100.36
11
131.725
21
-100.36
0
LINE
8
Black
10
131.725
20
-100.36
11
131.725
21
-100.21
0
LINE
8
Black
10
131.725
20
-100.21
11
132.475
21
-100.21
0
LINE
8
Black
10
132.475
20
-100.21
11
132.475
21
-100.36
0
LINE
8
Black
10
132.475
20
-100.36
11
132.98
21
-100.36
0
LINE
8
Black
10
132.98
20
-100.36
11
132.991
21
-100.362
0
LINE
8
Black
10
132.991
20
-100.362
11
133.002
21
-100.361
0
LINE
8
Black
10
133.002
20
-100.361
11
133.033
21
-100.369
0
LINE
8
Black
10
133.033
20
-100.369
11
133.066
21
-100.375
0
LINE
8
Black
10
133.066
20
-100.375
11
133.075
21
-100.381
0
LINE
8
Black
10
133.075
20
-100.381
11
133.086
21
-100.383
0
LINE
8
Black
10
133.086
20
-100.383
11
133.112
21
-100.402
0
LINE
8
Black
10
133.112
20
-100.402
11
133.141
21
-100.418
0
LINE
8
Black
10
133.141
20
-100.418
11
133.148
21
-100.427
0
LINE
8
Black
10
133.148
20
-100.427
11
133.157
21
-100.433
0
LINE
8
Black
10
133.157
20
-100.433
11
133.259
21
-100.535
0
LINE
8
Black
10
133.259
20
-100.535
11
133.765
21
-100.535
0
LINE
8
Black
10
133.765
20
-100.535
11
133.765
21
-100.485
0
LINE
8
Black
10
133.765
20
-100.485
11
135.315
21
-100.485
0
LINE
8
Black
10
135.315
20
-100.485
11
135.315
21
-101.085
0
LINE
8
Black
10
135.315
20
-101.085
11
133.765
21
-101.085
0
LINE
8
Black
10
133.765
20
-101.085
11
133.765
21
-101.035
0
LINE
8
Black
10
133.765
20
-101.035
11
133.155
21
-101.035
0
LINE
8
Black
10
133.155
20
-101.035
11
133.144
21
-101.033
0
LINE
8
Black
10
133.144
20
-101.033
11
133.133
21
-101.034
0
LINE
8
Black
10
133.133
20
-101.034
11
133.102
21
-101.026
0
LINE
8
Black
10
133.102
20
-101.026
11
133.069
21
-101.02
0
LINE
8
Black
10
133.069
20
-101.02
11
133.06
21
-101.014
0
LINE
8
Black
10
133.06
20
-101.014
11
133.049
21
-101.012
0
LINE
8
Black
10
133.049
20
-101.012
11
133.023
21
-100.993
0
LINE
8
Black
10
133.023
20
-100.993
11
132.994
21
-100.977
0
LINE
8
Black
10
132.994
20
-100.977
11
132.987
21
-100.968
0
LINE
8
Black
10
132.987
20
-100.968
11
132.978
21
-100.962
0
LINE
8
Black
10
132.978
20
-100.962
11
132.876
21
-100.86
0
LINE
8
Black
10
132.876
20
-100.86
11
132.475
21
-100.86
0
LINE
8
Black
10
132.475
20
-100.86
11
132.475
21
-101.01
0
LINE
8
Black
10
132.475
20
-101.01
11
131.725
21
-101.01
0
LINE
8
Black
10
131.725
20
-101.01
11
131.725
21
-100.86
0
LINE
8
Black
10
131.725
20
-100.86
11
131.09
21
-100.86
0
LINE
8
Black
10
131.09
20
-100.86
11
131.079
21
-100.858
0
LINE
8
Black
10
131.079
20
-100.858
11
131.068
21
-100.859
0
LINE
8
Black
10
131.068
20
-100.859
11
131.037
21
-100.851
0
LINE
8
Black
10
131.037
20
-100.851
11
131.004
21
-100.845
0
LINE
8
Black
10
131.004
20
-100.845
11
130.995
21
-100.839
0
LINE
8
Black
10
130.995
20
-100.839
11
130.984
21
-100.837
0
LINE
8
Black
10
130.984
20
-100.837
11
130.958
21
-100.818
0
LINE
8
Black
10
130.958
20
-100.818
11
130.929
21
-100.802
0
LINE
8
Black
10
130.929
20
-100.802
11
130.922
21
-100.793
0
LINE
8
Black
10
130.922
20
-100.793
11
130.913
21
-100.787
0
LINE
8
Black
10
130.913
20
-100.787
11
130.396
21
-100.27
0
LINE
8
Black
10
130.396
20
-100.27
11
130.27
21
-100.27
0
LINE
8
Black
10
130.27
20
-100.27
11
130.27
21
-100.87
0
LINE
8
Black
10
130.27
20
-100.87
11
128.57
21
-100.87
0
LINE
8
Black
10
128.57
20
-100.87
11
128.57
21
-99.17
0
LINE
8
Black
10
128.57
20
-99.17
11
130.27
21
-99.17
0
LINE
8
Black
10
130.27
20
-99.17
11
130.27
21
-99.77
0
LINE
8
Black
10
140.715
20
-99.815
11
139.165
21
-99.815
0
LINE
8
Black
10
139.165
20
-99.815
11
139.165
21
-99.215
0
LINE
8
Black
10
139.165
20
-99.215
11
140.715
21
-99.215
0
LINE
8
Black
10
140.715
20
-99.215
11
140.715
21
-99.815
0
LINE
8
Black
10
146.727
20
-93.3931
11
146.745
21
-93.3915
0
LINE
8
Black
10
146.745
20
-93.3915
11
146.795
21
-93.405
0
LINE
8
Black
10
146.795
20
-93.405
11
146.847
21
-93.4141
0
LINE
8
Black
10
146.847
20
-93.4141
11
146.862
21
-93.4229
0
LINE
8
Black
10
146.862
20
-93.4229
11
146.879
21
-93.4275
0
LINE
8
Black
10
146.879
20
-93.4275
11
146.922
21
-93.4575
0
LINE
8
Black
10
146.922
20
-93.4575
11
146.967
21
-93.4836
0
LINE
8
Black
10
146.967
20
-93.4836
11
146.978
21
-93.4971
0
LINE
8
Black
10
146.978
20
-93.4971
11
146.993
21
-93.5072
0
LINE
8
Black
10
146.993
20
-93.5072
11
148.696
21
-95.21
0
LINE
8
Black
10
148.696
20
-95.21
11
148.912
21
-95.21
0
LINE
8
Black
10
148.912
20
-95.21
11
148.921
21
-95.185
0
LINE
8
Black
10
148.921
20
-95.185
11
149.11
21
-94.9589
0
LINE
8
Black
10
149.11
20
-94.9589
11
149.366
21
-94.8113
0
LINE
8
Black
10
149.366
20
-94.8113
11
149.657
21
-94.76
0
LINE
8
Black
10
149.657
20
-94.76
11
149.663
21
-94.76
0
LINE
8
Black
10
149.663
20
-94.76
11
149.954
21
-94.8113
0
LINE
8
Black
10
149.954
20
-94.8113
11
150.21
21
-94.9589
0
LINE
8
Black
10
150.21
20
-94.9589
11
150.399
21
-95.185
0
LINE
8
Black
10
150.399
20
-95.185
11
150.5
21
-95.4624
0
LINE
8
Black
10
150.5
20
-95.4624
11
150.5
21
-95.7576
0
LINE
8
Black
10
150.5
20
-95.7576
11
150.399
21
-96.035
0
LINE
8
Black
10
150.399
20
-96.035
11
150.21
21
-96.2611
0
LINE
8
Black
10
150.21
20
-96.2611
11
149.954
21
-96.4087
0
LINE
8
Black
10
149.954
20
-96.4087
11
149.663
21
-96.46
0
LINE
8
Black
10
149.663
20
-96.46
11
149.657
21
-96.46
0
LINE
8
Black
10
149.657
20
-96.46
11
149.366
21
-96.4087
0
LINE
8
Black
10
149.366
20
-96.4087
11
149.11
21
-96.2611
0
LINE
8
Black
10
149.11
20
-96.2611
11
148.921
21
-96.035
0
LINE
8
Black
10
148.921
20
-96.035
11
148.912
21
-96.01
0
LINE
8
Black
10
148.912
20
-96.01
11
148.53
21
-96.01
0
LINE
8
Black
10
148.53
20
-96.01
11
148.513
21
-96.0069
0
LINE
8
Black
10
148.513
20
-96.0069
11
148.495
21
-96.0085
0
LINE
8
Black
10
148.495
20
-96.0085
11
148.445
21
-95.995
0
LINE
8
Black
10
148.445
20
-95.995
11
148.393
21
-95.9859
0
LINE
8
Black
10
148.393
20
-95.9859
11
148.378
21
-95.9771
0
LINE
8
Black
10
148.378
20
-95.9771
11
148.361
21
-95.9725
0
LINE
8
Black
10
148.361
20
-95.9725
11
148.318
21
-95.9425
0
LINE
8
Black
10
148.318
20
-95.9425
11
148.273
21
-95.9164
0
LINE
8
Black
10
148.273
20
-95.9164
11
148.262
21
-95.9029
0
LINE
8
Black
10
148.262
20
-95.9029
11
148.247
21
-95.8928
0
LINE
8
Black
10
148.247
20
-95.8928
11
146.544
21
-94.19
0
LINE
8
Black
10
146.544
20
-94.19
11
134.876
21
-94.19
0
LINE
8
Black
10
134.876
20
-94.19
11
133.94
21
-95.1257
0
LINE
8
Black
10
133.94
20
-95.1257
11
133.94
21
-95.235
0
LINE
8
Black
10
133.94
20
-95.235
11
133.94
21
-95.985
0
LINE
8
Black
10
133.94
20
-95.985
11
133.661
21
-95.985
0
LINE
8
Black
10
133.661
20
-95.985
11
133.609
21
-96.0039
0
LINE
8
Black
10
133.609
20
-96.0039
11
133.471
21
-96.0039
0
LINE
8
Black
10
133.471
20
-96.0039
11
133.419
21
-95.985
0
LINE
8
Black
10
133.419
20
-95.985
11
133.14
21
-95.985
0
LINE
8
Black
10
133.14
20
-95.985
11
133.14
21
-95.86
0
LINE
8
Black
10
133.14
20
-95.86
11
132.974
21
-95.86
0
LINE
8
Black
10
132.974
20
-95.86
11
132.53
21
-96.3036
0
LINE
8
Black
10
132.53
20
-96.3036
11
132.53
21
-96.9564
0
LINE
8
Black
10
132.53
20
-96.9564
11
132.754
21
-97.18
0
LINE
8
Black
10
132.754
20
-97.18
11
133.13
21
-97.18
0
LINE
8
Black
10
133.13
20
-97.18
11
133.13
21
-97.055
0
LINE
8
Black
10
133.13
20
-97.055
11
133.93
21
-97.055
0
LINE
8
Black
10
133.93
20
-97.055
11
133.93
21
-97.805
0
LINE
8
Black
10
133.93
20
-97.805
11
133.13
21
-97.805
0
LINE
8
Black
10
133.13
20
-97.805
11
133.13
21
-97.68
0
LINE
8
Black
10
133.13
20
-97.68
11
132.944
21
-97.68
0
LINE
8
Black
10
132.944
20
-97.68
11
132.53
21
-98.0936
0
LINE
8
Black
10
132.53
20
-98.0936
11
132.53
21
-98.2864
0
LINE
8
Black
10
132.53
20
-98.2864
11
133.509
21
-99.265
0
LINE
8
Black
10
133.509
20
-99.265
11
133.765
21
-99.265
0
LINE
8
Black
10
133.765
20
-99.265
11
133.765
21
-99.215
0
LINE
8
Black
10
133.765
20
-99.215
11
135.315
21
-99.215
0
LINE
8
Black
10
135.315
20
-99.215
11
135.315
21
-99.815
0
LINE
8
Black
10
135.315
20
-99.815
11
133.765
21
-99.815
0
LINE
8
Black
10
133.765
20
-99.815
11
133.765
21
-99.765
0
LINE
8
Black
10
133.765
20
-99.765
11
133.405
21
-99.765
0
LINE
8
Black
10
133.405
20
-99.765
11
133.394
21
-99.7631
0
LINE
8
Black
10
133.394
20
-99.7631
11
133.383
21
-99.764
0
LINE
8
Black
10
133.383
20
-99.764
11
133.352
21
-99.7556
0
LINE
8
Black
10
133.352
20
-99.7556
11
133.319
21
-99.7499
0
LINE
8
Black
10
133.319
20
-99.7499
11
133.31
21
-99.7444
0
LINE
8
Black
10
133.31
20
-99.7444
11
133.299
21
-99.7416
0
LINE
8
Black
10
133.299
20
-99.7416
11
133.273
21
-99.7228
0
LINE
8
Black
10
133.273
20
-99.7228
11
133.244
21
-99.7065
0
LINE
8
Black
10
133.244
20
-99.7065
11
133.237
21
-99.6981
0
LINE
8
Black
10
133.237
20
-99.6981
11
133.228
21
-99.6918
0
LINE
8
Black
10
133.228
20
-99.6918
11
132.103
21
-98.5668
0
LINE
8
Black
10
132.103
20
-98.5668
11
132.097
21
-98.5578
0
LINE
8
Black
10
132.097
20
-98.5578
11
132.088
21
-98.5507
0
LINE
8
Black
10
132.088
20
-98.5507
11
132.072
21
-98.5224
0
LINE
8
Black
10
132.072
20
-98.5224
11
132.053
21
-98.4957
0
LINE
8
Black
10
132.053
20
-98.4957
11
132.051
21
-98.485
0
LINE
8
Black
10
132.051
20
-98.485
11
132.045
21
-98.4755
0
LINE
8
Black
10
132.045
20
-98.4755
11
132.039
21
-98.4433
0
LINE
8
Black
10
132.039
20
-98.4433
11
132.031
21
-98.4118
0
LINE
8
Black
10
132.031
20
-98.4118
11
132.032
21
-98.4008
0
LINE
8
Black
10
132.032
20
-98.4008
11
132.03
21
-98.39
0
LINE
8
Black
10
132.03
20
-98.39
11
132.03
21
-97.99
0
LINE
8
Black
10
132.03
20
-97.99
11
132.03
21
-97.06
0
LINE
8
Black
10
132.03
20
-97.06
11
132.03
21
-96.2
0
LINE
8
Black
10
132.03
20
-96.2
11
132.032
21
-96.1892
0
LINE
8
Black
10
132.032
20
-96.1892
11
132.031
21
-96.1782
0
LINE
8
Black
10
132.031
20
-96.1782
11
132.039
21
-96.1467
0
LINE
8
Black
10
132.039
20
-96.1467
11
132.045
21
-96.1145
0
LINE
8
Black
10
132.045
20
-96.1145
11
132.051
21
-96.105
0
LINE
8
Black
10
132.051
20
-96.105
11
132.053
21
-96.0943
0
LINE
8
Black
10
132.053
20
-96.0943
11
132.072
21
-96.0676
0
LINE
8
Black
10
132.072
20
-96.0676
11
132.088
21
-96.0393
0
LINE
8
Black
10
132.088
20
-96.0393
11
132.097
21
-96.0322
0
LINE
8
Black
10
132.097
20
-96.0322
11
132.103
21
-96.0232
0
LINE
8
Black
10
132.103
20
-96.0232
11
132.693
21
-95.4332
0
LINE
8
Black
10
132.693
20
-95.4332
11
132.702
21
-95.4269
0
LINE
8
Black
10
132.702
20
-95.4269
11
132.709
21
-95.4185
0
LINE
8
Black
10
132.709
20
-95.4185
11
132.738
21
-95.4022
0
LINE
8
Black
10
132.738
20
-95.4022
11
132.764
21
-95.3834
0
LINE
8
Black
10
132.764
20
-95.3834
11
132.775
21
-95.3806
0
LINE
8
Black
10
132.775
20
-95.3806
11
132.784
21
-95.3751
0
LINE
8
Black
10
132.784
20
-95.3751
11
132.817
21
-95.3694
0
LINE
8
Black
10
132.817
20
-95.3694
11
132.848
21
-95.361
0
LINE
8
Black
10
132.848
20
-95.361
11
132.859
21
-95.3619
0
LINE
8
Black
10
132.859
20
-95.3619
11
132.87
21
-95.36
0
LINE
8
Black
10
132.87
20
-95.36
11
133.14
21
-95.36
0
LINE
8
Black
10
133.14
20
-95.36
11
133.14
21
-95.235
0
LINE
8
Black
10
133.14
20
-95.235
11
133.14
21
-94.96
0
LINE
8
Black
10
133.14
20
-94.96
11
133.143
21
-94.9427
0
LINE
8
Black
10
133.143
20
-94.9427
11
133.142
21
-94.9251
0
LINE
8
Black
10
133.142
20
-94.9251
11
133.155
21
-94.8747
0
LINE
8
Black
10
133.155
20
-94.8747
11
133.164
21
-94.8232
0
LINE
8
Black
10
133.164
20
-94.8232
11
133.173
21
-94.808
0
LINE
8
Black
10
133.173
20
-94.808
11
133.177
21
-94.791
0
LINE
8
Black
10
133.177
20
-94.791
11
133.207
21
-94.7481
0
LINE
8
Black
10
133.207
20
-94.7481
11
133.234
21
-94.7029
0
LINE
8
Black
10
133.234
20
-94.7029
11
133.247
21
-94.6916
0
LINE
8
Black
10
133.247
20
-94.6916
11
133.257
21
-94.6772
0
LINE
8
Black
10
133.257
20
-94.6772
11
134.427
21
-93.5072
0
LINE
8
Black
10
134.427
20
-93.5072
11
134.442
21
-93.4971
0
LINE
8
Black
10
134.442
20
-93.4971
11
134.453
21
-93.4836
0
LINE
8
Black
10
134.453
20
-93.4836
11
134.498
21
-93.4575
0
LINE
8
Black
10
134.498
20
-93.4575
11
134.541
21
-93.4275
0
LINE
8
Black
10
134.541
20
-93.4275
11
134.558
21
-93.4229
0
LINE
8
Black
10
134.558
20
-93.4229
11
134.573
21
-93.4141
0
LINE
8
Black
10
134.573
20
-93.4141
11
134.625
21
-93.405
0
LINE
8
Black
10
134.625
20
-93.405
11
134.675
21
-93.3915
0
LINE
8
Black
10
134.675
20
-93.3915
11
134.693
21
-93.3931
0
LINE
8
Black
10
134.693
20
-93.3931
11
134.71
21
-93.39
0
LINE
8
Black
10
134.71
20
-93.39
11
146.71
21
-93.39
0
LINE
8
Black
10
146.71
20
-93.39
11
146.727
21
-93.3931
0
CIRCLE
8
Black
10
149.66
20
-105.77
40
0.5
0
CIRCLE
8
Black
10
149.66
20
-103.23
40
0.5
0
CIRCLE
8
Black
10
149.66
20
-100.69
40
0.5
0
CIRCLE
8
Black
10
149.66
20
-98.15
40
0.5
0
CIRCLE
8
Black
10
149.66
20
-95.61
40
0.5
0
CIRCLE
8
Black
10
129.42
20
-100.02
40
0.5
0
CIRCLE
8
Black
10
129.42
20
-102.56
40
0.5
  0
ENDSEC
  0
EOF
