<?xml version="1.0" standalone="no"?>
 <!DOCTYPE svg PUBLIC "-//W3C//DTD SVG 1.1//EN" 
 "http://www.w3.org/Graphics/SVG/1.1/DTD/svg11.dtd"> 
<svg xmlns="http://www.w3.org/2000/svg" version="1.1" 
    width="29.7002cm" height="21.0007cm" viewBox="0 0 116930 82680 ">
<title>SVG Picture created as temp-F.Cu.svg date 2018/01/20 11:15:45 </title>
  <desc>Picture generated by PCBNEW </desc>
<g style="fill:#000000; fill-opacity:1;stroke:#000000; stroke-opacity:1;
stroke-linecap:round; stroke-linejoin:round; "
 transform="translate(0 0) scale(1 1)">
</g>
<g style="fill:#000000; fill-opacity:0.0; 
stroke:#000000; stroke-width:-0.000393701; stroke-opacity:1; 
stroke-linecap:round; stroke-linejoin:round;">
</g>
<g style="fill:#000000; fill-opacity:0.0; 
stroke:#000000; stroke-width:39.3701; stroke-opacity:1; 
stroke-linecap:round; stroke-linejoin:round;">
<path d="M59842 42519
L59842 36614
" />
<path d="M50000 42519
L59842 42519
" />
<path d="M50000 36614
L50000 42519
" />
<path d="M59842 36614
L50000 36614
" />
</g>
<g style="fill:#000000; fill-opacity:0.0; 
stroke:#000000; stroke-width:0; stroke-opacity:1; 
stroke-linecap:round; stroke-linejoin:round;">
</g>
<g style="fill:#000000; fill-opacity:1.0; 
stroke:#000000; stroke-width:0; stroke-opacity:1; 
stroke-linecap:round; stroke-linejoin:round;">
<polyline style="fill-rule:evenodd;"
points="52732,37494
52732,37789
52417,37789
52417,37494
52732,37494
" /> 
<polyline style="fill-rule:evenodd;"
points="53322,37494
53322,37789
53007,37789
53007,37494
53322,37494
" /> 
<polyline style="fill-rule:evenodd;"
points="52155,39767
51860,39767
51860,39452
52155,39452
52155,39767
" /> 
<polyline style="fill-rule:evenodd;"
points="52155,40358
51860,40358
51860,40043
52155,40043
52155,40358
" /> 
<polyline style="fill-rule:evenodd;"
points="52728,38210
52728,38505
52413,38505
52413,38210
52728,38210
" /> 
<polyline style="fill-rule:evenodd;"
points="53318,38210
53318,38505
53003,38505
53003,38210
53318,38210
" /> 
<polyline style="fill-rule:evenodd;"
points="59255,41307
59255,41976
58586,41976
58586,41307
59255,41307
" /> 
</g>
<g style="fill:#000000; fill-opacity:1.0; 
stroke:#000000; stroke-width:669.291; stroke-opacity:1; 
stroke-linecap:round; stroke-linejoin:round;">
</g>
<g style="fill:#000000; fill-opacity:0.0; 
stroke:#000000; stroke-width:669.291; stroke-opacity:1; 
stroke-linecap:round; stroke-linejoin:round;">
<path d="M58921 40641
L58921 40641
" />
<path d="M58921 39641
L58921 39641
" />
<path d="M58921 38641
L58921 38641
" />
<path d="M58921 37641
L58921 37641
" />
</g>
<g style="fill:#000000; fill-opacity:0.0; 
stroke:#000000; stroke-width:0; stroke-opacity:1; 
stroke-linecap:round; stroke-linejoin:round;">
</g>
<g style="fill:#000000; fill-opacity:1.0; 
stroke:#000000; stroke-width:0; stroke-opacity:1; 
stroke-linecap:round; stroke-linejoin:round;">
<polyline style="fill-rule:evenodd;"
points="55472,41677
55472,42031
55275,42031
55275,41677
55472,41677
" /> 
<polyline style="fill-rule:evenodd;"
points="54881,41677
54881,42031
54685,42031
54685,41677
54881,41677
" /> 
<polyline style="fill-rule:evenodd;"
points="53748,38523
53748,38169
53944,38169
53944,38523
53748,38523
" /> 
<polyline style="fill-rule:evenodd;"
points="54338,38523
54338,38169
54535,38169
54535,38523
54338,38523
" /> 
<polyline style="fill-rule:evenodd;"
points="50618,39712
50618,39043
51287,39043
51287,39712
50618,39712
" /> 
</g>
<g style="fill:#000000; fill-opacity:1.0; 
stroke:#000000; stroke-width:669.291; stroke-opacity:1; 
stroke-linecap:round; stroke-linejoin:round;">
</g>
<g style="fill:#000000; fill-opacity:0.0; 
stroke:#000000; stroke-width:669.291; stroke-opacity:1; 
stroke-linecap:round; stroke-linejoin:round;">
<path d="M50952 40377
L50952 40377
" />
</g>
<g style="fill:#000000; fill-opacity:0.0; 
stroke:#000000; stroke-width:0; stroke-opacity:1; 
stroke-linecap:round; stroke-linejoin:round;">
</g>
<g style="fill:#000000; fill-opacity:1.0; 
stroke:#000000; stroke-width:0; stroke-opacity:1; 
stroke-linecap:round; stroke-linejoin:round;">
<polyline style="fill-rule:evenodd;"
points="52663,39297
52663,39061
53273,39061
53273,39297
52663,39297
" /> 
<polyline style="fill-rule:evenodd;"
points="52663,39797
52663,39561
53273,39561
53273,39797
52663,39797
" /> 
<polyline style="fill-rule:evenodd;"
points="52663,40297
52663,40061
53273,40061
53273,40297
52663,40297
" /> 
<polyline style="fill-rule:evenodd;"
points="52663,40797
52663,40561
53273,40561
53273,40797
52663,40797
" /> 
<polyline style="fill-rule:evenodd;"
points="54789,40797
54789,40561
55399,40561
55399,40797
54789,40797
" /> 
<polyline style="fill-rule:evenodd;"
points="54789,40297
54789,40061
55399,40061
55399,40297
54789,40297
" /> 
<polyline style="fill-rule:evenodd;"
points="54789,39797
54789,39561
55399,39561
55399,39797
54789,39797
" /> 
<polyline style="fill-rule:evenodd;"
points="54789,39297
54789,39061
55399,39061
55399,39297
54789,39297
" /> 
<polyline style="fill-rule:evenodd;"
points="57322,40220
57322,40614
56929,40614
56929,40220
57322,40220
" /> 
<polyline style="fill-rule:evenodd;"
points="56338,40220
56338,40614
55944,40614
55944,40220
56338,40220
" /> 
<polyline style="fill-rule:evenodd;"
points="57326,41055
57326,41448
56933,41448
56933,41055
57326,41055
" /> 
<polyline style="fill-rule:evenodd;"
points="56342,41055
56342,41448
55948,41448
55948,41055
56342,41055
" /> 
</g>
<g style="fill:#000000; fill-opacity:1.0; 
stroke:#000000; stroke-width:314.961; stroke-opacity:1; 
stroke-linecap:round; stroke-linejoin:round;">
</g>
<g style="fill:#000000; fill-opacity:0.0; 
stroke:#000000; stroke-width:314.961; stroke-opacity:1; 
stroke-linecap:round; stroke-linejoin:round;">
<path d="M52574 37641
L52574 37385
" />
<path d="M58476 37641
L58921 37641
" />
<path d="M57759 36925
L58476 37641
" />
<path d="M53035 36925
L57759 36925
" />
<path d="M52574 37385
L53035 36925
" />
</g>
<g style="fill:#000000; fill-opacity:0.0; 
stroke:#000000; stroke-width:196.85; stroke-opacity:1; 
stroke-linecap:round; stroke-linejoin:round;">
<path d="M52570 38358
L52299 38358
" />
<path d="M52299 38358
L52078 38578
" />
<path d="M52570 38358
L52224 38358
" />
<path d="M52224 38358
L52078 38212
" />
<path d="M52968 39179
L52521 39179
" />
<path d="M52078 38736
L52078 38578
" />
<path d="M52521 39179
L52078 38736
" />
<path d="M52311 37641
L52574 37641
" />
<path d="M52078 37874
L52311 37641
" />
<path d="M52078 38578
L52078 38212
" />
<path d="M52078 38212
L52078 37874
" />
</g>
<g style="fill:#000000; fill-opacity:0.0; 
stroke:#000000; stroke-width:314.961; stroke-opacity:1; 
stroke-linecap:round; stroke-linejoin:round;">
<path d="M53165 37641
L57153 37641
" />
<path d="M58153 38641
L58921 38641
" />
<path d="M57153 37641
L58153 38641
" />
</g>
<g style="fill:#000000; fill-opacity:0.0; 
stroke:#000000; stroke-width:196.85; stroke-opacity:1; 
stroke-linecap:round; stroke-linejoin:round;">
<path d="M52968 40679
L52968 40984
" />
<path d="M53838 41854
L54783 41854
" />
<path d="M52968 40984
L53838 41854
" />
<path d="M53165 37641
L53165 38354
" />
<path d="M53165 38354
L53161 38358
" />
<path d="M53846 38346
L53173 38346
" />
<path d="M53173 38346
L53161 38358
" />
<path d="M52968 40679
L53482 40679
" />
<path d="M53846 40314
L53846 38346
" />
<path d="M53482 40679
L53846 40314
" />
<path d="M52007 39610
L52354 39610
" />
<path d="M52423 39679
L52968 39679
" />
<path d="M52354 39610
L52423 39679
" />
<path d="M50952 39377
L51377 39377
" />
<path d="M51610 39610
L52007 39610
" />
<path d="M51377 39377
L51610 39610
" />
<path d="M52007 40200
L52401 40200
" />
<path d="M52423 40179
L52968 40179
" />
<path d="M52401 40200
L52423 40179
" />
<path d="M50952 40377
L51366 40377
" />
<path d="M51543 40200
L52007 40200
" />
<path d="M51366 40377
L51543 40200
" />
<path d="M56145 41251
L56145 41700
" />
<path d="M55992 41854
L55374 41854
" />
<path d="M56145 41700
L55992 41854
" />
<path d="M55094 40679
L55094 40901
" />
<path d="M55444 41251
L56145 41251
" />
<path d="M55094 40901
L55444 41251
" />
<path d="M58921 41641
L58216 41641
" />
<path d="M57826 41251
L57129 41251
" />
<path d="M58216 41641
L57826 41251
" />
<path d="M55094 40179
L55903 40179
" />
<path d="M55903 40179
L56141 40417
" />
<path d="M54437 38346
L54437 40062
" />
<path d="M54553 40179
L55094 40179
" />
<path d="M54437 40062
L54553 40179
" />
<path d="M57125 40417
L57964 40417
" />
<path d="M58188 40641
L58921 40641
" />
<path d="M57964 40417
L58188 40641
" />
<path d="M55094 39679
L58883 39679
" />
<path d="M58883 39679
L58921 39641
" />
</g> 
</svg>
